<svg width="50" height="50" viewBox="0 0 50 50" fill="none" xmlns="http://www.w3.org/2000/svg"><path d="M0 25c0 13.8071 11.1929 25 25 25s25-11.1929 25-25S38.8071 0 25 0 0 11.1929 0 25z" fill="#4898B7"/><path d="M12.6222 24.3684c6.5786-2.8662 10.9654-4.7558 13.1603-5.6687 6.267-2.6066 7.5692-3.0594 8.418-3.0746.1867-.0031.6041.0432.8744.2626.2283.1852.2911.4355.3212.6111.0301.1756.0675.5757.0377.8884-.3396 3.5683-1.8091 12.2276-2.5566 16.2241-.3164 1.6911-.9392 2.2581-1.5423 2.3136-1.3104.1206-2.3056-.866-3.5748-1.698-1.9862-1.302-3.1082-2.1124-5.0361-3.3829-2.228-1.4682-.7837-2.2752.486-3.594.3323-.3451 6.1063-5.597 6.2181-6.0735.014-.0596.0269-.2817-.105-.399-.132-.1172-.3267-.0771-.4672-.0452-.1992.0452-3.3721 2.1423-9.5187 6.2915-.9006.6184-1.7164.9197-2.4473.9039-.8057-.0174-2.3556-.4555-3.5078-.8301-1.4133-.4594-2.5365-.7023-2.4387-1.4824.051-.4064.6106-.822 1.6788-1.2468z" fill="#fff"/></svg>