<svg width="50" height="50" viewBox="0 0 50 50" fill="none" xmlns="http://www.w3.org/2000/svg"><path d="M0 25c0 13.8071 11.1929 25 25 25s25-11.1929 25-25S38.8071 0 25 0 0 11.1929 0 25z" fill="#4898B7"/><path d="M37.5 17.1875c-.9375.4688-1.875.625-2.9687.7813 1.0937-.6251 1.8749-1.5626 2.1875-2.8126-.9376.625-2.0313.9375-3.2813 1.25-.9375-.9375-2.3438-1.5624-3.75-1.5624-3.2812 0-5.7812 3.125-5 6.25-4.2187-.1563-7.9687-2.1875-10.625-5.3125-1.4062 2.3437-.625 5.3125 1.5625 6.8749-.7812 0-1.5625-.3124-2.3438-.6249 0 2.3437 1.7188 4.5312 4.0626 5.1562-.7813.1562-1.5625.3125-2.3438.1563.625 2.0312 2.5 3.5937 4.8437 3.5937-1.875 1.4062-4.6874 2.1875-7.3437 1.875 2.3438 1.4062 5 2.3437 7.8125 2.3437 9.5312 0 14.8437-7.9687 14.5312-15.3125 1.0938-.625 2.0313-1.5625 2.6563-2.6562z" fill="#fff"/></svg>